<svg width="80" height="80" viewBox="0 0 80 80" fill="none" xmlns="http://www.w3.org/2000/svg">
<path d="M69.4667 48.2718L47.9217 69.8169C46.1748 71.5638 43.3425 71.5638 41.5956 69.8169L9.83216 38.0534C8.93119 37.1524 8.45721 35.91 8.52911 34.6379L9.54763 16.6212C9.75188 13.0085 12.6341 10.1238 16.2466 9.91647L34.2862 8.88114C35.5596 8.80805 36.8036 9.28206 37.7055 10.184L69.4667 41.9458C71.2136 43.6927 71.2136 46.5249 69.4667 48.2718Z" fill="#3D6B4F"/>
<path d="M19.3076 22.6572C20.9645 22.6572 22.3076 21.3141 22.3076 19.6572C22.3076 18.0004 20.9645 16.6572 19.3076 16.6572C17.6508 16.6572 16.3076 18.0004 16.3076 19.6572C16.3076 21.3141 17.6508 22.6572 19.3076 22.6572Z" fill="white"/>
<path d="M39.4659 37.6126L36.1053 34.252C36.7842 33.8775 37.5704 33.6225 38.4861 33.4776C38.91 33.4175 39.1561 33.218 39.3233 33.0508C39.9266 32.4475 39.9416 31.5174 39.3574 30.9333C38.8256 30.4014 38.1509 30.5073 37.9148 30.5446C36.4168 30.8233 35.2184 31.3192 34.0908 32.1347L33.8988 31.9428C33.3713 31.4152 32.4798 31.4154 31.9523 31.9429C31.4247 32.4704 31.4247 33.3617 31.9523 33.8893L32.0917 34.0287C30.2142 36.4177 30.1786 39.3025 32.0552 41.1791C33.9485 43.0725 36.1507 43.0864 39.3694 41.2037L42.8307 44.665C41.8374 45.3042 40.7135 45.649 39.2589 45.768C39.0655 45.7893 38.6929 45.8737 38.3694 46.1972C37.7855 46.7811 37.7779 47.7233 38.3523 48.2977C38.7138 48.6593 39.1824 48.8064 39.6886 48.7262C41.6787 48.4861 43.358 47.8365 44.8072 46.7442L45.6761 47.6131C46.2036 48.1406 47.095 48.1408 47.6226 47.6132C48.1501 47.0857 48.1501 46.1941 47.6226 45.6666L46.7942 44.8382C48.7053 42.3598 48.7329 39.4873 46.8184 37.5728C44.9371 35.6914 42.6584 35.699 39.4659 37.6126ZM37.149 38.9833C35.3372 39.8887 34.7256 39.5117 34.1384 38.9246C33.3961 38.1823 33.4169 37.0688 34.1566 35.9909L37.149 38.9833ZM44.7476 42.8942L41.6686 39.8153C43.5266 38.8707 44.1846 39.2771 44.7349 39.8274C45.5257 40.6181 45.5185 41.7611 44.7476 42.8942Z" fill="white"/>
</svg>
