<svg width="80" height="80" viewBox="0 0 80 80" fill="none" xmlns="http://www.w3.org/2000/svg">
<path d="M30.2122 15.4706C30.1501 13.2136 32.21 10.9646 34.5669 11.1213C38.2522 11.1744 41.9401 11.1133 45.6254 11.1425C47.9121 11.1186 49.9045 13.2428 49.8371 15.4626C49.8506 20.4332 49.7966 25.4039 49.8802 30.3719C55.1179 30.2497 60.3609 30.3639 65.6039 30.2949C67.9419 30.1913 70.1585 32.2704 70.037 34.5964C69.9884 38.3057 70.0478 42.0178 70.0289 45.7272C70.0667 47.9789 67.8933 49.9517 65.6309 49.8535C60.3636 49.88 55.0963 49.8588 49.8289 49.8668C49.8397 54.6914 49.8316 59.5186 49.8505 64.3459C49.9558 66.6241 47.9958 68.8466 45.6415 68.8864C41.8564 68.8624 38.0686 68.889 34.2808 68.8598C32.0561 68.8041 30.1905 66.7621 30.2121 64.6034C30.2256 59.6939 30.196 54.787 30.2067 49.8774C24.9151 49.8243 19.6235 49.8641 14.3319 49.8668C11.9696 49.9252 9.83402 47.7983 9.96362 45.4723C9.99062 41.8426 9.94743 38.2102 9.96903 34.5805C9.93125 32.9369 11.0138 31.3782 12.5365 30.733C13.7676 30.1382 15.1716 30.34 16.4945 30.3135C21.0598 30.2869 25.6252 30.348 30.1879 30.2975C30.2554 25.3561 30.1933 20.412 30.2122 15.4706L30.2122 15.4706Z" fill="#3D6B4F"/>
</svg>
