<svg width="80" height="80" viewBox="0 0 80 80" fill="none" xmlns="http://www.w3.org/2000/svg">
<path d="M52.1854 24.8975H61.1044C62.4493 24.8975 80 44.1881 80 45.533V51.8028C80 53.1484 78.9096 54.2396 77.5647 54.2396H73.2435C72.2249 50.574 68.8634 47.8858 64.8746 47.8858C60.8858 47.8858 57.5252 50.5748 56.505 54.2396H52.1854C50.8405 54.2396 49.7501 53.1477 49.7501 51.8028V27.3328C49.7501 25.9879 50.8405 24.8975 52.1854 24.8975ZM53.0848 35.9393L53.4729 35.9247L67.945 35.9263L61.1472 28.4553C61.0715 28.3819 61.0073 28.304 60.9424 28.2306C60.7177 27.9647 60.461 27.6629 59.868 27.6629H54.4694C53.6915 27.6629 53.0848 28.1206 53.0848 28.7067V35.9393Z" fill="#3D6B4F"/>
<path d="M0.24778 19.2544V51.8029C0.24778 53.1478 1.33821 54.239 2.68385 54.239H8.4508C9.47017 50.5757 12.8308 47.8867 16.8196 47.8867C20.8084 47.8867 24.1699 50.5757 25.1892 54.239H46.1098C47.4547 54.239 48.5459 53.1486 48.5459 51.8029V19.2544C48.5459 17.9088 47.4555 16.8184 46.1098 16.8184H2.68385C1.33821 16.8184 0.24778 17.9088 0.24778 19.2544Z" fill="#3D6B4F"/>
<path d="M52.2319 37.5682V29.3874C52.2319 28.461 52.983 27.71 53.9094 27.71H59.8231C60.4025 27.71 60.9534 27.9612 61.3332 28.3987L68.1564 36.2569C69.2806 37.5517 68.361 39.5682 66.6463 39.5682H54.2319C53.1274 39.5682 52.2319 38.6727 52.2319 37.5682Z" fill="white"/>
<circle cx="64.8749" cy="56.5814" r="7.04431" fill="#3D6B4F"/>
<circle cx="16.85" cy="56.5814" r="7.04431" fill="#3D6B4F"/>
</svg>
