<svg width="68" height="68" viewBox="0 0 68 68" fill="none" xmlns="http://www.w3.org/2000/svg">
<path d="M8.7333 22.0885C8.73895 22.0884 8.7445 22.0884 8.75015 22.0885C10.7538 22.0837 12.3823 20.436 12.3823 18.4114C12.3823 16.3839 10.7489 14.7344 8.74116 14.7344C6.73346 14.7344 5.1001 16.3839 5.1001 18.4114C5.1001 20.4364 6.72913 22.0843 8.7333 22.0885Z" fill="#3D6B4F"/>
<path d="M44.1834 35.8618C44.0576 35.9658 43.8938 36.0106 43.7331 35.9844C43.5725 35.9584 43.4307 35.8642 43.3434 35.7256L34.0003 20.8984L24.6573 35.7256C24.57 35.8642 24.4281 35.9583 24.2675 35.9844C24.1072 36.0106 23.9431 35.9658 23.8173 35.8618L9.55078 24.0739L14.8363 56.1001H53.1644L58.4499 24.0739L44.1834 35.8618Z" fill="#3D6B4F"/>
<path d="M62.8999 18.4114C62.8999 16.3839 61.2665 14.7344 59.2588 14.7344C57.2511 14.7344 55.6177 16.3839 55.6177 18.4114C55.6177 20.436 57.2461 22.0837 59.2498 22.0885C59.2526 22.0884 59.2553 22.0884 59.2581 22.0884C59.261 22.0884 59.2638 22.0885 59.2667 22.0885C61.2708 22.0843 62.8999 20.4364 62.8999 18.4114Z" fill="#3D6B4F"/>
<path d="M33.9914 19.254C33.9943 19.254 33.997 19.254 34 19.254C34.0029 19.2541 34.0057 19.254 34.0086 19.254C36.0124 19.2494 37.641 17.6017 37.641 15.577C37.641 13.5494 36.0076 11.8999 34 11.8999C31.9923 11.8999 30.3589 13.5495 30.3589 15.577C30.3589 17.6017 31.9875 19.2494 33.9914 19.254Z" fill="#3D6B4F"/>
</svg>
