<svg width="25" height="18" viewBox="0 0 25 18" fill="none" xmlns="http://www.w3.org/2000/svg">
<path d="M2.11736 0.0690958C5.97215 -0.0582358 9.85711 0.0584855 13.7152 0.0620225C16.4102 0.0620225 19.1756 -0.0865299 21.8639 0.0761716C22.2092 0.0973935 22.5477 0.153984 22.8695 0.295463C22.9433 0.327296 23.0137 0.362668 23.0841 0.401575C23.1545 0.440482 23.2215 0.482926 23.2885 0.532444C23.3556 0.578425 23.4159 0.627939 23.4796 0.684531C23.5399 0.737586 23.5969 0.794181 23.6539 0.85431C23.7109 0.914438 23.7612 0.978104 23.8114 1.04177C23.8617 1.10897 23.9053 1.17617 23.9489 1.24691C23.9924 1.31765 24.0293 1.39193 24.0662 1.46621C24.1031 1.54048 24.1332 1.6183 24.1634 1.69611C24.2941 2.05335 24.3612 2.43534 24.388 2.81733C24.5019 4.47972 24.3779 6.41799 24.3813 8.10867C24.3846 10.0894 24.5321 12.2611 24.3645 14.2206C24.3209 14.7122 24.2338 15.2074 24.036 15.6601C23.6941 16.4347 23.0438 16.7318 22.3332 17.0113C21.2136 17.1669 20.0036 17.0785 18.8706 17.0785H12.7365C12.7365 17.0749 6.10288 17.0785 6.10288 17.0785C4.84588 17.0855 3.55201 17.1563 2.30172 17.0643C1.94306 17.0396 1.64473 16.9299 1.32629 16.7531C0.803379 16.463 0.354211 15.9891 0.186612 15.3807C-0.145235 14.1852 0.0659411 7.86108 0.0692931 6.19516C0.0692931 4.95368 -0.0312666 3.65207 0.0692931 2.41766C0.106165 1.95431 0.196671 1.50512 0.43131 1.10897C0.820141 0.451093 1.4369 0.214112 2.12406 0.0690958H2.11736Z" fill="#3D6B4F"/>
<path d="M2.09462 1.30737C2.35607 1.35335 2.58401 1.52666 2.79183 1.68936C3.68681 2.39323 4.48459 3.27747 5.31923 4.06269C6.63321 5.30417 8.00418 6.50674 9.27123 7.80128C9.74051 8.27877 10.1159 8.90128 10.6321 9.31865C10.8936 9.52733 11.2657 9.6865 11.5808 9.77138C12.0165 9.89164 12.583 9.89872 12.9953 9.6865C13.9137 9.21962 14.7651 8.03472 15.4925 7.28488C16.4177 6.32989 20.8658 1.99708 21.7842 1.49129C21.9753 1.38518 22.1663 1.34982 22.3708 1.44178C22.7797 1.6257 22.8971 2.19515 23.0077 2.59483C20.7954 4.68873 18.5931 6.82154 16.2802 8.79164C17.4065 9.74663 18.4691 10.8077 19.5551 11.8087C20.6412 12.8132 21.982 13.846 22.8602 15.0521C22.8133 15.1335 22.763 15.2148 22.7094 15.2962C22.5216 15.5685 22.2032 15.901 21.8613 15.9081C21.1943 15.9222 15.9719 10.8679 15.0936 9.99775C14.2858 10.8891 13.4176 11.6142 12.1908 11.646C10.85 11.6778 9.87794 10.9174 8.94944 10.0048C7.02875 11.9997 5.0075 13.8743 2.88569 15.6322C2.74826 15.7489 2.59071 15.8409 2.41306 15.8585C2.14825 15.8868 1.88009 15.7312 1.69573 15.5367C1.51137 15.3421 1.42422 15.1653 1.42422 14.8859C1.85663 14.0193 6.67344 9.76431 7.74607 8.67492C6.76394 7.73762 1.83987 3.40481 1.39405 2.60545C1.3002 2.43921 1.28679 2.25174 1.34713 2.06782C1.4678 1.69997 1.79294 1.49483 2.09127 1.30737H2.09462Z" fill="#FEFEFE"/>
</svg>
