<svg width="25" height="25" viewBox="0 0 25 25" fill="none" xmlns="http://www.w3.org/2000/svg">
<path d="M14.0872 0C14.5219 0.059737 14.9593 0.104615 15.3906 0.181814C17.1107 0.489638 18.6445 1.19979 20.0196 2.24406C21.7269 3.54062 22.9817 5.16565 23.7659 7.13344C24.3251 8.53675 24.4927 9.997 24.4335 11.4886C24.4116 12.0426 24.0564 12.3718 23.4983 12.3928C22.9344 12.414 22.5503 12.1032 22.4769 11.5457C22.4022 10.9786 22.374 10.4043 22.2732 9.84202C21.9886 8.25483 21.4989 6.74056 20.5083 5.41697C19.6267 4.23903 18.4608 3.42306 17.0913 2.86901C15.8236 2.35615 14.4974 2.06734 13.1364 1.91742C12.5363 1.8513 12.2293 1.60913 12.1924 1.16028C12.1498 0.644195 12.3857 0.147592 12.9484 0.0378801C12.9701 0.0336409 12.9884 0.0129897 13.0082 0C13.3679 0 13.7276 0 14.0872 0Z" fill="#3D6B4F"/>
<path d="M2.83994e-06 5.51995C0.0380327 3.77159 0.93825 2.55942 2.48865 1.76196C3.00141 1.49823 3.5331 1.2757 4.12624 1.23474C4.75118 1.19161 5.3003 1.35523 5.78026 1.75278C6.58313 2.41782 7.26379 3.19393 7.85225 4.03534C8.38798 4.80131 8.88149 5.60138 9.32239 6.42265C9.91102 7.51911 9.45514 8.4793 8.57658 9.1249C8.42662 9.23507 8.27222 9.33957 8.12342 9.45115C7.38543 10.0045 7.19244 10.6131 7.52329 11.4672C7.92188 12.4962 8.5159 13.4158 9.257 14.244C10.3049 15.4149 11.5881 16.276 13.0272 16.9253C13.4864 17.1325 13.9807 17.3142 14.4541 17.0331C14.7345 16.8666 14.958 16.5907 15.1672 16.3332C15.5221 15.8965 15.9105 15.5081 16.4412 15.2793C17.1552 14.9714 17.8833 15.0146 18.5486 15.3548C19.2533 15.7152 19.9235 16.1482 20.5753 16.5958C21.3155 17.1042 22.0349 17.6447 22.7339 18.2059C23.7367 19.0111 23.9799 19.9245 23.4532 21.0782C22.6813 22.7687 21.3471 23.8519 19.5169 24.3575C18.7234 24.5767 17.9898 24.3459 17.2842 24.0494C14.4664 22.8654 11.8372 21.3676 9.44659 19.4864C7.38211 17.8619 5.57598 15.9983 4.02866 13.8975C2.58512 11.9376 1.4167 9.83007 0.468028 7.60522C0.184243 6.93959 -0.000836054 6.2504 2.83994e-06 5.51995Z" fill="#3D6B4F"/>
<path d="M21.164 10.282C21.1455 10.5511 21.1506 10.8242 21.103 11.0883C21.0231 11.532 20.6925 11.7716 20.1893 11.7919C19.7042 11.8115 19.3512 11.6016 19.2473 11.1639C19.1467 10.74 19.1211 10.2997 19.0374 9.87128C18.8597 8.9613 18.6012 8.07796 18.0535 7.30064C17.4586 6.4562 16.6107 5.94633 15.6363 5.64092C14.9479 5.42511 14.2353 5.28063 13.5304 5.11662C13.1076 5.01827 12.7282 4.88332 12.6059 4.41534C12.4195 3.70196 12.9309 3.06624 13.6801 3.12625C16.5997 3.3601 18.867 4.63721 20.3275 7.15068C20.8879 8.1153 21.1495 9.16921 21.164 10.282Z" fill="#3D6B4F"/>
<path d="M14.2605 6.30566C15.272 6.37197 16.067 6.82961 16.7499 7.4941C17.444 8.16949 17.9264 8.96065 17.99 9.93993C18.0062 10.1902 17.9861 10.4509 17.9302 10.6955C17.8296 11.1364 17.5066 11.3858 17.0688 11.4136C16.6291 11.4416 16.2562 11.2162 16.1008 10.7943C16.0246 10.5872 15.9888 10.3636 15.955 10.1445C15.8115 9.21232 15.2051 8.57151 14.258 8.36215C14.0355 8.31296 13.8092 8.27461 13.5922 8.20807C13.2309 8.09734 12.9788 7.87975 12.9443 7.48598C12.9085 7.07629 13.1249 6.64429 13.4876 6.49724C13.7304 6.39877 14.0019 6.36715 14.2605 6.30566Z" fill="#3D6B4F"/>
</svg>
