<svg width="90" height="90" viewBox="0 0 90 90" fill="none" xmlns="http://www.w3.org/2000/svg">
<path fill-rule="evenodd" clip-rule="evenodd" d="M31.678 28.9314C38.6903 30.7936 40.4239 31.7657 45.6869 33.9807C46.4882 34.2256 48.8718 35.5911 50.3049 36.4084C58.6807 40.9308 66.1852 46.8218 73.4597 52.4104C76.0946 54.9199 72.9395 58.8624 69.5949 57.5064L55.228 48.0106C54.2479 47.3627 52.8148 48.5598 54.1656 49.6438C55.3262 50.1721 65.2447 56.108 65.7377 56.6485C69.2411 59.8221 65.6198 63.0097 61.7763 60.6461C60.3774 59.8417 56.6393 57.8794 55.2794 57.116C53.6612 56.2071 51.6297 54.5255 50.8666 55.3452C50.1106 56.5479 51.8424 57.0555 52.7864 57.6263C53.7457 58.207 54.7487 58.7665 55.7115 59.3169C56.7152 59.8913 58.5289 60.8914 59.9341 61.7076C62.9656 63.4685 59.6568 67.7012 55.7741 65.7885C54.1704 64.9987 52.5482 64.0445 50.6391 63.0758C49.9207 62.7105 49.1211 62.1448 48.3671 61.9765C46.6097 61.5841 46.542 63.336 47.9338 63.721L53.2955 66.3335C56.6535 68.2057 52.6571 71.4495 50.0753 70.3982C43.9108 67.8889 19.8164 51.5838 17.7239 48.8696C17.015 47.952 16.3439 47.043 15.5328 46.1851C15.1226 45.7515 15.0338 45.1367 15.3039 44.6047C16.9264 41.4123 22.6571 31.1707 24.7177 27.7585C24.9154 27.431 25.2029 27.2199 25.5747 27.1287C25.9461 27.0379 26.2989 27.0925 26.6255 27.2915C27.3253 27.7177 28.0031 28.1694 29.2388 28.476C30.0543 28.6782 30.8685 28.806 31.678 28.9314Z" fill="#FFBC9A"/>
<path fill-rule="evenodd" clip-rule="evenodd" d="M29.566 38.928C29.3106 39.4156 29.1232 39.9122 29.2947 40.4571C29.5059 41.1296 30.2794 41.8204 31.2171 42.1186C33.0952 42.7156 35.6344 41.5341 37.0859 39.9521C41.5 35.1411 41.706 34.5255 48.9321 34.9953C48.4469 34.7283 47.9569 34.4612 47.4614 34.1937C37.9384 29.0517 36.7484 44.8978 30.0578 39.6688C29.8082 39.474 29.6407 39.2129 29.566 38.928Z" fill="#CF987D"/>
<path fill-rule="evenodd" clip-rule="evenodd" d="M72.4608 50.378C73.5748 49.4268 74.7688 47.9539 75.7393 46.9743C76.1802 46.5291 76.2708 45.8699 75.9649 45.3223L68.7658 32.4289C68.1911 31.4582 67.2569 29.9535 66.6412 28.7544C66.3534 28.1942 65.7507 27.9044 65.1335 28.0291C55.9364 29.8832 51 21.765 40.4651 24.9767C37.9195 25.7519 30.8945 34.9116 29.1753 38.6866C28.9064 39.2775 29.0724 39.9552 29.5842 40.3547C36.2749 45.5836 37.4649 29.7376 46.988 34.8797C55.7927 39.6337 62.9147 44.2595 70.7005 50.4113C71.2249 50.826 71.9527 50.8123 72.4608 50.378Z" fill="#FFB38B"/>
<path fill-rule="evenodd" clip-rule="evenodd" d="M29.231 49.1198C28.1444 49.5869 23.9203 55.4082 22.7523 57.1507C20.6284 60.3191 24.2757 63.3256 26.8076 61.3598C27.7048 60.6576 30.6617 56.0754 31.4866 54.9833C32.2619 53.9568 33.5448 52.7911 32.8269 50.9637C32.3669 49.7929 30.7486 48.4672 29.231 49.1198ZM21.0187 48.7271C20.0275 49.0731 17.9757 51.8555 17.9167 52.9818C17.8173 54.8753 19.7775 56.8131 21.7669 56.1321C22.4891 55.8844 25.0989 52.7204 25.1637 51.5515C25.2754 49.522 23.073 47.5983 21.0187 48.7271ZM36.9906 61.0366L34.3541 64.79C32.7763 68.0776 36.2231 69.8023 38.3402 68.5406C38.8351 68.2453 41.6686 64.5241 41.943 63.7772C42.9126 61.144 39.0908 58.0511 36.9906 61.0366ZM33.5045 54.6844C32.4123 55.273 29.4543 59.8458 28.644 60.9592C26.2917 64.1893 30.2582 66.6956 32.3177 65.2214C32.986 64.8391 35.9209 60.6018 36.7139 59.5147C38.9583 56.4375 35.7522 53.4743 33.5045 54.6844Z" fill="#FFB38B"/>
<path fill-rule="evenodd" clip-rule="evenodd" d="M67.4659 25.282L79.947 46.5211L76.9878 48.4491C76.6524 48.6675 76.2819 48.7299 75.8936 48.6329C75.5054 48.536 75.2056 48.3078 75.0139 47.9567L64.2225 28.2117C64.023 27.8461 63.991 27.4537 64.1343 27.0625C64.2775 26.6713 64.5546 26.3906 64.944 26.2424L67.4659 25.282Z" fill="#E6E6E6"/>
<path fill-rule="evenodd" clip-rule="evenodd" d="M23.7426 25.0132L11.2617 45.2542L13.8071 46.7244C14.1417 46.9175 14.4826 47.0097 14.8593 46.9242C15.236 46.8386 15.5227 46.6203 15.7223 46.2897L26.8125 27.9071C27.0202 27.5629 27.0515 27.1804 26.9212 26.7999C26.7909 26.4197 26.5294 26.1429 26.1567 25.9919L23.7426 25.0132Z" fill="#E6E6E6"/>
<path fill-rule="evenodd" clip-rule="evenodd" d="M19.9427 19.8197L23.6623 22.1529C24.9548 22.9637 25.3489 24.6842 24.5382 25.9766L12.3509 45.4067C11.5401 46.6992 9.81939 47.0931 8.52715 46.2824L4.80742 43.9494C3.51495 43.1387 3.12066 41.4182 3.93127 40.1257L16.119 20.6957C16.9295 19.4032 18.6502 19.0092 19.9427 19.8197ZM8.80263 40.3725C9.68553 40.3725 10.4012 41.0883 10.4012 41.9712C10.4012 42.854 9.68542 43.5698 8.80263 43.5698C7.91973 43.5698 7.20402 42.854 7.20402 41.9712C7.20402 41.0882 7.91984 40.3725 8.80263 40.3725Z" fill="#2D426D"/>
<path fill-rule="evenodd" clip-rule="evenodd" d="M71.0992 20.7136L67.2736 22.8687C65.9445 23.6175 65.4695 25.3178 66.2183 26.6469L77.4758 46.6302C78.2246 47.9595 79.9249 48.4341 81.2541 47.6853L85.0795 45.5304C86.4088 44.7816 86.8838 43.0816 86.1349 41.7522L74.8774 21.7691C74.1286 20.4398 72.4283 19.965 71.0992 20.7136ZM81.434 41.8538C82.3169 41.8538 83.0326 42.5696 83.0326 43.4524C83.0326 44.3353 82.3167 45.051 81.434 45.051C80.551 45.051 79.8353 44.3352 79.8353 43.4524C79.8353 42.5695 80.551 41.8538 81.434 41.8538Z" fill="#2D426D"/>
<path fill-rule="evenodd" clip-rule="evenodd" d="M43.3044 63.573C44.1192 61.3602 41.5504 58.8228 39.4629 59.8408C41.1293 60.0927 42.5842 62.0355 41.9431 63.7774C41.8509 64.0282 41.4703 64.6143 40.9866 65.2934C41.2678 65.4686 41.5462 65.6411 41.8214 65.8107C42.5367 64.8513 43.1806 63.9099 43.3044 63.573ZM26.5249 51.3473C26.6325 49.3907 24.5894 47.5325 22.6016 48.4131C24.0582 48.6017 25.2463 50.0477 25.1635 51.5515C25.1347 52.0727 24.5997 52.9906 23.9516 53.8698C24.1966 54.047 24.4466 54.2269 24.7012 54.4091C25.0729 53.9048 25.4667 53.3798 25.8622 52.8647C26.2399 52.2646 26.5048 51.7099 26.5249 51.3473ZM30.4676 48.9836C31.5438 49.1777 32.4919 50.1115 32.8266 50.9636C33.5446 52.7911 32.2619 53.9565 31.4864 54.9832C31.1268 55.4595 30.3618 56.5994 29.5388 57.7917C29.8127 57.9792 30.0886 58.1675 30.366 58.3563C31.3762 56.9148 32.4109 55.3576 32.8479 54.7792C33.6231 53.7528 34.9061 52.587 34.1883 50.7596C33.7282 49.5889 32.1101 48.2633 30.5924 48.9159C30.5545 48.932 30.5128 48.9548 30.4676 48.9836ZM38.0751 59.3105C40.2885 56.276 37.2013 53.3523 34.9597 54.4325C36.8418 54.7003 38.4957 57.0717 36.7136 59.5147C36.4266 59.908 35.8594 60.7137 35.2203 61.6C35.4949 61.7803 35.7692 61.9597 36.0431 62.1383C36.8877 60.9837 37.7092 59.8119 38.0751 59.3105Z" fill="#CF987D"/>
</svg>
