<svg width="67" height="67" viewBox="0 0 67 67" fill="none" xmlns="http://www.w3.org/2000/svg">
<path d="M56.3749 4.1018V62.6061C56.3749 64.8714 54.5503 66.7079 52.2997 66.7079H4.07535C1.82468 66.7079 0 64.8716 0 62.6061V13.8366H9.67199C11.9227 13.8366 13.7472 12.0002 13.7472 9.73476V0H52.2994C54.5502 0.000136809 56.3749 1.83652 56.3749 4.1018Z" fill="#E9EDF4"/>
<path d="M0 13.8366H9.67199C11.9227 13.8366 13.7472 12.0002 13.7472 9.73476V0L0 13.8366Z" fill="#8DD1FE"/>
<path d="M47.7056 22.2027C47.7056 22.9634 47.1029 23.57 46.3471 23.57H10.0274C9.2817 23.57 8.66895 22.9634 8.66895 22.2027C8.66895 21.4421 9.2817 20.8354 10.0274 20.8354H46.3471C47.1029 20.8354 47.7056 21.4419 47.7056 22.2027Z" fill="#D2DBEA"/>
<path d="M47.7056 29.2115C47.7056 29.9722 47.1029 30.5788 46.3471 30.5788H10.0274C9.2817 30.5788 8.66895 29.9722 8.66895 29.2115C8.66895 28.4509 9.2817 27.8442 10.0274 27.8442H46.3471C47.1029 27.8442 47.7056 28.4507 47.7056 29.2115Z" fill="#D2DBEA"/>
<path d="M47.7056 36.2181C47.7056 36.9788 47.1029 37.5854 46.3471 37.5854H10.0274C9.2817 37.5854 8.66895 36.9788 8.66895 36.2181C8.66895 35.4574 9.2817 34.8508 10.0274 34.8508H46.3471C47.1029 34.8508 47.7056 35.4574 47.7056 36.2181Z" fill="#D2DBEA"/>
<path d="M43.4462 43.2247C43.4462 43.9853 42.8435 44.592 42.0877 44.592H10.0274C9.2817 44.592 8.66895 43.9853 8.66895 43.2247C8.66895 42.464 9.2817 41.8574 10.0274 41.8574H42.0877C42.8435 41.8574 43.4462 42.4639 43.4462 43.2247Z" fill="#D2DBEA"/>
<path d="M43.4462 50.2323C43.4462 50.9929 42.8435 51.5995 42.0877 51.5995H10.0274C9.2817 51.5995 8.66895 50.9931 8.66895 50.2323C8.66895 49.4715 9.2817 48.865 10.0274 48.865H42.0877C42.8435 48.865 43.4462 49.4716 43.4462 50.2323Z" fill="#D2DBEA"/>
<path d="M43.4462 43.2247C43.4462 43.9853 42.8435 44.592 42.0877 44.592H10.0274C9.2817 44.592 8.66895 43.9853 8.66895 43.2247C8.66895 42.464 9.2817 41.8574 10.0274 41.8574H42.0877C42.8435 41.8574 43.4462 42.4639 43.4462 43.2247Z" fill="#D2DBEA"/>
<path d="M43.4462 50.2323C43.4462 50.9929 42.8435 51.5995 42.0877 51.5995H10.0274C9.2817 51.5995 8.66895 50.9931 8.66895 50.2323C8.66895 49.4715 9.2817 48.865 10.0274 48.865H42.0877C42.8435 48.865 43.4462 49.4716 43.4462 50.2323Z" fill="#D2DBEA"/>
<path d="M47.7056 57.2389C47.7056 57.9995 47.1029 58.6061 46.3471 58.6061H10.0274C9.2817 58.6061 8.66895 57.9995 8.66895 57.2389C8.66895 56.4782 9.2817 55.8716 10.0274 55.8716H46.3471C47.1029 55.8716 47.7056 56.4782 47.7056 57.2389Z" fill="#D2DBEA"/>
<path d="M45.1748 48.4551L45.4782 55.0255L45.6224 57.5058C45.6785 58.4707 46.8088 58.9528 47.5367 58.3224L49.4078 56.7018L54.4837 52.4261L45.1748 48.4551Z" fill="#FFC90D"/>
<path d="M45.4785 55.0249L45.6227 57.5052C45.6789 58.4702 46.8091 58.9523 47.537 58.3219L49.4082 56.7012L45.4785 55.0249Z" fill="#342C37"/>
<path d="M65.8392 25.1075L54.4818 52.4314L45.1738 48.4583L56.5121 21.1802L65.8392 25.1075Z" fill="#F14F4A"/>
<path d="M65.0331 27.0455L66.3151 23.9611C67.3926 21.3689 66.1782 18.3882 63.6026 17.3037C61.027 16.2192 58.0656 17.4415 56.9881 20.0339L55.7061 23.1182L65.0331 27.0455Z" fill="#342C37"/>
</svg>
