<svg width="67" height="56" viewBox="0 0 67 56" fill="none" xmlns="http://www.w3.org/2000/svg">
<path d="M0.0480749 7.52508C-0.0409417 3.59336 3.37349 0.00379802 7.45554 0.0784509C24.2161 -0.0708549 40.9766 0.0971172 57.7372 0.00380106C60.1406 -0.0521886 62.7094 0.501484 64.4388 2.25583C66.251 3.94796 66.7596 6.48616 66.766 8.84395C66.7787 18.3809 66.7787 27.9178 66.7978 37.4547C67.0839 41.9463 63.1608 45.7474 58.6718 45.9589C59.136 49.0819 59.4158 52.2297 59.8608 55.3589C54.1002 52.7523 48.4159 49.9715 42.9032 46.8983C41.9876 46.3944 40.9957 45.9464 39.9211 45.99C29.1056 45.7909 18.2774 45.9651 7.46188 45.8967C3.58966 45.9216 0.0226408 42.5186 0.0671491 38.7113C-0.0409425 28.3159 0.00356659 17.9205 0.0480749 7.52508ZM16.0329 19.1523C13.178 20.1601 12.415 24.1913 14.5578 26.2256C16.8341 28.6519 21.9271 27.3205 22.0606 23.8181C22.7346 20.6142 19.0404 17.877 16.0329 19.1523ZM31.8334 18.9967C29.1819 19.8864 27.8085 23.4821 29.6969 25.6782C31.5091 28.291 36.2015 27.9178 37.4477 24.9503C39.1263 21.6843 35.2414 17.653 31.8334 18.9967ZM47.1951 19.1398C43.9205 20.1787 43.3928 25.1805 46.3875 26.8353C48.8736 28.6643 53.1401 26.9597 53.1464 23.7932C53.6042 20.72 50.1962 17.9205 47.1951 19.1398Z" fill="#528CDE"/>
</svg>
