<svg width="90" height="90" viewBox="0 0 90 90" fill="none" xmlns="http://www.w3.org/2000/svg">
<g clip-path="url(#clip0_142_5908)">
<path fill-rule="evenodd" clip-rule="evenodd" d="M66.1194 16.2652C66.1194 16.7839 65.7508 17.1545 65.2348 17.1545H56.6102C56.0942 17.1545 55.7256 16.7839 55.7256 16.2652V3.88929C55.7256 3.37054 56.0942 3 56.6102 3H65.2348C65.7508 3 66.1194 3.37054 66.1194 3.88929V16.2652Z" fill="#3B566A"/>
<path fill-rule="evenodd" clip-rule="evenodd" d="M19.6049 37.9045H38.5497C39.2131 37.9045 39.8765 38.201 40.3188 38.6456C40.7611 39.0903 41.056 39.7572 41.056 40.4242V59.4697C41.056 60.1367 40.7611 60.8036 40.3188 61.2483C39.8765 61.6929 39.2131 61.9894 38.5497 61.9894H19.6049C18.9415 61.9894 18.2781 61.6929 17.8358 61.2483C17.3935 60.8036 17.0986 60.1367 17.0986 59.4697V40.4242C17.0986 39.7572 17.3935 39.0903 17.8358 38.6456C18.2781 38.201 18.9415 37.9045 19.6049 37.9045Z" fill="#F2C397"/>
<path fill-rule="evenodd" clip-rule="evenodd" d="M24.9863 37.9044H33.2424V46.575C33.2424 46.575 33.2424 46.9455 33.0212 47.1678C32.7264 47.5384 32.1367 47.6125 31.7681 47.2419L29.1144 44.9446L26.4606 47.1678C26.4606 47.1678 26.092 47.3901 25.8709 47.3901C25.3549 47.3901 24.9863 47.0196 24.9863 46.5009V37.8303V37.9044Z" fill="#8F6E4E"/>
<path fill-rule="evenodd" clip-rule="evenodd" d="M19.7531 60.2849H70.1741C73.7124 60.2849 76.8821 61.7671 79.241 64.0644C81.5262 66.3617 83.0005 69.6224 83.0005 73.1796C83.0005 76.7367 81.5262 79.9233 79.241 82.2947C76.9559 84.5921 73.7124 86.0742 70.1741 86.0742H19.7531C16.2148 86.0742 13.0451 84.5921 10.6862 82.2947C8.40105 79.9974 6.92676 76.7367 6.92676 73.1796C6.92676 69.6224 8.40105 66.4358 10.6862 64.0644C12.9714 61.7671 16.2148 60.2849 19.7531 60.2849Z" fill="#5D7E97"/>
<path fill-rule="evenodd" clip-rule="evenodd" d="M19.7522 62.8044C17.0248 62.8044 14.4448 63.916 12.5282 65.8428C10.6116 67.7696 9.50586 70.3634 9.50586 73.1053C9.50586 75.8473 10.6116 78.4411 12.5282 80.3678C14.4448 82.2946 17.0248 83.4062 19.7522 83.4062H70.1732C72.9006 83.4062 75.4806 82.2946 77.3972 80.3678C79.3138 78.4411 80.4195 75.8473 80.4195 73.1053C80.4195 70.3634 79.3138 67.7696 77.3972 65.8428C75.4806 63.916 72.9006 62.8044 70.1732 62.8044H19.7522Z" fill="#304556"/>
<path fill-rule="evenodd" clip-rule="evenodd" d="M13.7813 67.1027C15.6979 65.1759 18.2779 64.0643 21.0054 64.0643H71.4263C73.8589 64.0643 76.1441 64.9536 77.9869 66.5098C77.7658 66.2875 77.6184 66.0652 77.3972 65.8428C75.4806 63.916 72.9006 62.8044 70.1732 62.8044H19.7522C17.0248 62.8044 14.4448 63.916 12.5282 65.8428C10.6116 67.7696 9.50586 70.3634 9.50586 73.1053C9.50586 75.8473 10.6116 78.4411 12.5282 80.3678C12.7493 80.5902 12.9705 80.8125 13.1916 80.9607C11.6436 79.108 10.759 76.8107 10.759 74.3652C10.759 71.6232 11.8647 69.0294 13.7813 67.1027Z" fill="#2B3E4D"/>
<path d="M64.7929 66.5098H25.208V68.066H64.7929V66.5098Z" fill="#E6E6E6"/>
<path d="M64.7929 78.2188H25.208V79.775H64.7929V78.2188Z" fill="#E6E6E6"/>
<path fill-rule="evenodd" clip-rule="evenodd" d="M25.2071 66.5098C27.05 66.5098 28.6717 67.2508 29.8511 68.4366C31.0306 69.6223 31.7677 71.2526 31.7677 73.1053C31.7677 74.958 31.0306 76.5883 29.8511 77.7741C28.6717 78.9598 26.9763 79.7008 25.2071 79.7008C23.4379 79.7008 21.7425 78.9598 20.5631 77.7741C19.3836 76.5883 18.6465 74.8839 18.6465 73.1053C18.6465 71.3267 19.3836 69.6223 20.5631 68.4366C21.7425 67.2508 23.4379 66.5098 25.2071 66.5098Z" fill="#C4CED3"/>
<path fill-rule="evenodd" clip-rule="evenodd" d="M44.963 66.5098C46.8058 66.5098 48.4276 67.2508 49.607 68.4366C50.7864 69.6223 51.5236 71.2526 51.5236 73.1053C51.5236 74.958 50.7864 76.5883 49.607 77.7741C48.4276 78.9598 46.8058 79.7008 44.963 79.7008C43.1201 79.7008 41.4984 78.9598 40.3189 77.7741C39.1395 76.5883 38.4023 74.8839 38.4023 73.1053C38.4023 71.3267 39.1395 69.6223 40.3189 68.4366C41.4984 67.2508 43.1201 66.5098 44.963 66.5098Z" fill="#C4CED3"/>
<path fill-rule="evenodd" clip-rule="evenodd" d="M64.7921 66.5098C66.6349 66.5098 68.2567 67.2508 69.4361 68.4366C70.6155 69.6223 71.3527 71.2526 71.3527 73.1053C71.3527 74.958 70.6155 76.5883 69.4361 77.7741C68.2567 78.9598 66.6349 79.7008 64.7921 79.7008C62.9492 79.7008 61.3275 78.9598 60.148 77.7741C58.9686 76.5883 58.2314 74.8839 58.2314 73.1053C58.2314 71.3267 58.9686 69.6223 60.148 68.4366C61.3275 67.2508 62.9492 66.5098 64.7921 66.5098Z" fill="#C4CED3"/>
<path fill-rule="evenodd" clip-rule="evenodd" d="M48.28 37.4598C48.7223 37.6821 48.8697 38.2009 48.6485 38.6455C48.4274 39.0902 47.9114 39.2384 47.4691 39.016L44.9628 37.6821C44.9628 37.6821 44.5205 37.2375 44.5205 36.8669V20.2669C44.5205 20.2669 44.7417 19.6 45.0365 19.4518L52.7766 15.3759C52.7766 15.3759 53.0714 15.3018 53.2189 15.3018H68.7727C68.9201 15.3018 69.0675 15.3018 69.215 15.45L76.955 19.5259C76.955 19.5259 77.3973 19.9705 77.3973 20.341V36.941C77.3973 36.941 77.1762 37.608 76.8813 37.7562L74.5224 39.016C74.0802 39.2384 73.5642 39.016 73.343 38.6455C73.1219 38.2009 73.343 37.6821 73.7116 37.4598L75.7019 36.4223V20.9339L68.6253 17.1544H53.5137L46.4371 20.9339V36.4223L48.4274 37.4598H48.28Z" fill="#C4CED3"/>
<path fill-rule="evenodd" clip-rule="evenodd" d="M50.787 25.825H70.9849C71.722 25.825 72.3855 26.1214 72.9015 26.6401C73.4175 27.1589 73.7123 27.8258 73.7123 28.5669V48.8723C73.7123 49.6133 73.4175 50.2803 72.9015 50.7991C72.3855 51.3178 71.722 51.6142 70.9849 51.6142H50.787C50.0499 51.6142 49.3864 51.3178 48.8704 50.7991C48.3544 50.2803 48.0596 49.6133 48.0596 48.8723V28.5669C48.0596 27.8258 48.3544 27.1589 48.8704 26.6401C49.3864 26.1214 50.0499 25.825 50.787 25.825Z" fill="#F2C397"/>
<path fill-rule="evenodd" clip-rule="evenodd" d="M56.5366 25.8251H65.3087V35.0885C65.3087 35.0885 65.3087 35.5331 65.0875 35.6813C64.7927 36.0519 64.2029 36.126 63.7607 35.7554L60.8858 33.3099L58.0846 35.6813C58.0846 35.6813 57.716 35.9778 57.4212 35.9778C56.9052 35.9778 56.4629 35.5331 56.4629 35.0144V25.751L56.5366 25.8251Z" fill="#8F6E4E"/>
</g>
<defs>
<clipPath id="clip0_142_5908">
<rect width="76" height="83" fill="white" transform="translate(7 3)"/>
</clipPath>
</defs>
</svg>
